<svg width="20" height="20" viewBox="0 0 20 20" fill="none" xmlns="http://www.w3.org/2000/svg">
<path d="M14.0169 0.695557H5.56127C2.80931 0.695557 0.570496 2.96866 0.570496 5.76276V14.348C0.570496 17.142 2.80931 19.4151 5.56127 19.4151H14.017C16.7688 19.4151 19.0077 17.142 19.0077 14.348V5.76276C19.0077 2.96866 16.7688 0.695557 14.0169 0.695557V0.695557ZM9.78907 15.1738C7.00926 15.1738 4.7478 12.8777 4.7478 10.0553C4.7478 7.23294 7.00926 4.93684 9.78907 4.93684C12.5689 4.93684 14.8303 7.23294 14.8303 10.0553C14.8303 12.8777 12.5689 15.1738 9.78907 15.1738V15.1738ZM14.9509 6.14394C14.1294 6.14394 13.4613 5.46556 13.4613 4.63149C13.4613 3.79743 14.1294 3.1189 14.9509 3.1189C15.7724 3.1189 16.4407 3.79743 16.4407 4.63149C16.4407 5.46556 15.7724 6.14394 14.9509 6.14394Z" fill="#333333"/>
<path d="M9.78861 6.68408C7.95876 6.68408 6.46991 8.19567 6.46991 10.0537C6.46991 11.9117 7.95876 13.4234 9.78861 13.4234C11.6186 13.4234 13.1073 11.9117 13.1073 10.0537C13.1073 8.19567 11.6186 6.68408 9.78861 6.68408V6.68408Z" fill="#333333"/>
</svg>
