<svg viewBox="0 0 43 43" fill="none" xmlns="http://www.w3.org/2000/svg">
<circle cx="21.4571" cy="21.3712" r="21.3712" fill="#333333"/>
<path d="M12.4512 17.011H16.2494V29.2416H12.4512V17.011Z" fill="white"/>
<path d="M14.3503 10.9224C13.1358 10.9224 12.1504 11.9078 12.1504 13.1222C12.1504 14.3367 13.1358 15.3427 14.3503 15.3427C15.5647 15.3427 16.5501 14.3367 16.5501 13.1222C16.5494 11.9078 15.5639 10.9224 14.3503 10.9224V10.9224Z" fill="white"/>
<path d="M30.4641 29.2423V29.2416H30.4687V22.5229C30.4687 19.236 29.7611 16.7041 25.9186 16.7041C24.0713 16.7041 22.8317 17.7178 22.3256 18.6788H22.2722V17.011H18.6289V29.2416H22.4226V23.1854C22.4226 21.5909 22.7249 20.049 24.6996 20.049C26.6452 20.049 26.6743 21.8687 26.6743 23.2877V29.2423H30.4641Z" fill="white"/>
</svg>
