<svg viewBox="0 0 43 43" fill="none" xmlns="http://www.w3.org/2000/svg">
<circle cx="21.629" cy="21.3712" r="21.3712" fill="currentColor"/>
<path d="M24.4809 19.5191C24.305 19.3431 23.9883 19.0616 23.7771 18.9208C23.5308 18.7449 23.2493 18.7801 23.0381 18.956L22.2991 19.695C22.0176 20.0117 21.8768 20.3988 21.8768 20.7507C21.8768 20.9267 22.0176 21.1026 22.1232 21.2082C22.2287 21.2786 22.3695 21.3842 22.5103 21.4897C23.4956 22.5103 23.4956 24.0938 22.5103 25.0792L20.1173 27.4369C19.132 28.4575 17.5132 28.4575 16.5279 27.4369C15.5425 26.4516 15.5777 24.8328 16.563 23.8475L17.0205 23.39C17.1965 23.2493 17.2317 23.0029 17.1613 22.7918C16.9501 22.1935 16.8446 21.5601 16.8094 20.9619C16.8094 20.4692 16.2111 20.2229 15.8592 20.5748L14.5572 21.8768C12.4809 23.9531 12.4809 27.3666 14.5572 29.4428C16.6334 31.5191 20.0469 31.5191 22.1232 29.4428L24.4809 27.085C24.4809 27.085 24.4809 27.085 24.4809 27.0499C26.5572 25.0088 26.5924 21.6305 24.4809 19.5191ZM29.4428 14.5572C27.3666 12.4809 23.9531 12.4809 21.8768 14.5572L19.5191 16.915C19.5191 16.915 19.5191 16.915 19.5191 16.9501C17.4428 18.9912 17.4076 22.3695 19.5191 24.4809C19.695 24.6569 20.0117 24.9384 20.2229 25.0792C20.4692 25.2551 20.7507 25.2199 20.9619 25.044L21.7009 24.305C21.9824 23.9883 22.1232 23.6012 22.1232 23.2493C22.1232 23.0733 21.9824 22.8974 21.8768 22.7918C21.7713 22.7214 21.6305 22.6158 21.4897 22.5103C20.5044 21.4897 20.5044 19.9062 21.4897 18.9208L23.8827 16.563C24.868 15.5425 26.4868 15.5425 27.4721 16.563C28.4575 17.5484 28.4223 19.1672 27.4369 20.1525L26.9795 20.61C26.8035 20.7507 26.7683 20.9971 26.8387 21.2082C27.0499 21.8065 27.1554 22.4399 27.1906 23.0381C27.1906 23.5308 27.7889 23.7771 28.1408 23.4252L29.4428 22.1232C31.5191 20.0469 31.5191 16.6334 29.4428 14.5572Z" fill="currentColor"/>
</svg>
