<svg viewBox="0 0 43 43" fill="none" xmlns="http://www.w3.org/2000/svg">
<circle cx="21.5431" cy="21.3712" r="21.3712" fill="#333333"/>
<path d="M33.2998 15.2493C32.4904 15.6312 31.6205 15.8884 30.7075 16.0043C31.6397 15.411 32.3556 14.471 32.6921 13.3507C31.8203 13.9001 30.8541 14.2995 29.8256 14.5148C29.0034 13.5825 27.8291 13 26.5311 13C23.6171 13 21.4757 15.8894 22.1339 18.8888C18.3838 18.6891 15.0581 16.7797 12.8316 13.8777C11.6491 16.0335 12.2183 18.8537 14.2276 20.2818C13.4888 20.2565 12.7921 20.0412 12.1844 19.6818C12.1349 21.9038 13.6336 23.9827 15.8043 24.4454C15.1691 24.6285 14.4733 24.6714 13.7656 24.5272C14.3395 26.4327 16.006 27.8189 17.9823 27.8579C16.0848 29.4389 13.6941 30.1452 11.2998 29.8452C13.2972 31.2061 15.6705 32 18.2188 32C26.599 32 31.3336 24.4785 31.0476 17.7325C31.9294 17.0554 32.6948 16.2108 33.2998 15.2493Z" fill="white"/>
</svg>
