<svg viewBox="0 0 227 77" fill="none" xmlns="http://www.w3.org/2000/svg">
<path d="M37.4429 33.439L32.5212 38.4218H42.3918L37.4429 33.439Z" fill="black"/>
<path d="M18.5107 18.6399H55.8993V25.3562H18.5107V18.6399ZM42.4598 38.483H52.5275L47.4903 43.561L42.4598 38.483L37.4225 43.561L32.3921 38.483L27.3412 43.561L22.3108 38.483H32.3921L27.3684 33.4049H37.3885L32.3581 28.3201H42.4462L37.3885 33.4049H47.4971L42.4598 38.483ZM20.6181 46.3686C21.1486 46.8215 21.8175 47.0804 22.5147 47.1027C24.4181 47.0687 25.2679 45.6616 27.1713 45.6208C29.2107 45.5732 30.1488 47.1095 32.1949 47.1095C34.2411 47.1095 35.1724 45.6208 37.2186 45.6208C39.2648 45.6208 40.1961 47.1095 42.2423 47.1095C44.2884 47.1095 45.2197 45.5732 47.2659 45.6208C49.1693 45.6616 49.9851 47.0687 51.9089 47.1027C52.6125 47.0797 53.2868 46.8157 53.8191 46.355C51.9861 48.7629 49.7781 50.8608 47.2795 52.5683C44.1345 54.8254 40.7599 56.744 37.2118 58.2921C33.6647 56.7463 30.292 54.8276 27.1509 52.5683C24.6582 50.8613 22.453 48.7686 20.6181 46.3686ZM58.904 15.574V15.5332H15.54V15.574V40.7875C15.54 52.3439 36.3621 61.4599 37.2186 61.4599C38.0751 61.4599 58.904 52.3439 58.904 40.7875V15.574Z" fill="black"/>
<path d="M41.644 23.4323L42.7861 20.8423V20.4888H40.6651V20.9443H42.1947L41.0798 23.4323H41.644ZM38.5782 21.9368C38.5027 21.9464 38.4261 21.9399 38.3533 21.9177C38.2806 21.8955 38.2134 21.8581 38.1562 21.8079C38.099 21.7578 38.0531 21.6961 38.0216 21.6269C37.99 21.5577 37.9735 21.4826 37.9731 21.4065C37.9783 21.3342 37.9977 21.2635 38.0303 21.1987C38.0628 21.1338 38.1079 21.076 38.1629 21.0287C38.2178 20.9813 38.2816 20.9452 38.3505 20.9226C38.4195 20.8999 38.4922 20.8911 38.5646 20.8967C38.7449 20.8967 38.9178 20.9683 39.0453 21.0958C39.1727 21.2233 39.2444 21.3962 39.2444 21.5765C39.1735 21.6813 39.0784 21.7675 38.9672 21.8279C38.856 21.8882 38.7319 21.9209 38.6054 21.9232L38.5782 21.9368ZM38.4762 23.4663C39.3327 23.4663 39.7746 22.7865 39.7746 21.9504C39.7746 21.1142 39.4279 20.4276 38.5646 20.4276C38.4275 20.4165 38.2895 20.4335 38.1592 20.4778C38.029 20.522 37.9092 20.5925 37.8072 20.6849C37.7053 20.7773 37.6234 20.8896 37.5666 21.0149C37.5098 21.1402 37.4792 21.2758 37.4769 21.4133C37.4728 21.5423 37.4958 21.6708 37.5443 21.7904C37.5929 21.9099 37.6659 22.018 37.7588 22.1077C37.8516 22.1973 37.9622 22.2665 38.0834 22.3109C38.2047 22.3552 38.3338 22.3737 38.4626 22.365C38.6178 22.3601 38.7699 22.3203 38.9076 22.2485C39.0453 22.1767 39.1651 22.0748 39.258 21.9504V22.0387C39.258 22.5214 39.0132 23.0041 38.4762 23.0041C38.3632 23.0079 38.2507 22.9875 38.1463 22.9441C38.0419 22.9007 37.9481 22.8354 37.8712 22.7525L37.6333 23.14C37.7453 23.2473 37.8775 23.3314 38.0221 23.3874C38.1668 23.4434 38.3211 23.4702 38.4762 23.4663ZM35.3152 23.0108C34.9821 23.0108 34.7034 22.8545 34.7034 22.5962C34.7034 22.3379 35.1316 22.1543 35.3152 22.1339C35.4987 22.1135 35.9202 22.2903 35.9202 22.5962C35.9202 22.9021 35.6415 23.0108 35.3152 23.0108ZM35.3152 21.6989C35.1316 21.6649 34.7509 21.5561 34.7509 21.2774C34.7509 20.9987 34.9889 20.8899 35.3152 20.8899C35.6415 20.8899 35.8726 21.0327 35.8726 21.2774C35.8726 21.5221 35.4987 21.6649 35.3152 21.6989ZM35.3152 23.4663C35.9134 23.4663 36.4368 23.1876 36.4368 22.6642C36.4205 22.4803 36.3457 22.3064 36.2234 22.1682C36.101 22.0299 35.9376 21.9345 35.757 21.896C35.9211 21.8677 36.0711 21.7855 36.1831 21.6624C36.2952 21.5392 36.3629 21.3822 36.3756 21.2162C36.3756 20.6724 35.8114 20.4412 35.2948 20.4412C34.7781 20.4412 34.2139 20.6724 34.2139 21.2162C34.2251 21.3816 34.2915 21.5385 34.4024 21.6617C34.5133 21.785 34.6624 21.8675 34.8257 21.896C34.6456 21.9355 34.4828 22.0312 34.3606 22.1693C34.2384 22.3073 34.1632 22.4806 34.1459 22.6642C34.1459 23.1944 34.6694 23.4663 35.2744 23.4663H35.3152ZM32.9291 23.4187V20.4888H32.494L31.6443 21.3454L31.9434 21.6581L32.426 21.155V23.4323L32.9291 23.4187Z" fill="black"/>
<path d="M82.2548 58.367L81.6022 57.0618H77.9449V54.7165H81.5138V53.4113H77.9449V51.2156H81.6022L82.2548 49.9104H76.463V58.367H82.2548Z" fill="black"/>
<path d="M70.8275 58.367V51.2156H72.8261L73.3835 49.9104H66.7827V51.2156H69.3387V58.367H70.8275Z" fill="black"/>
<path d="M97.992 58.367V49.9104H96.51V53.3773H92.1118V49.9104H90.6298V58.367H92.1118V54.6825H96.51V58.367H97.992Z" fill="black"/>
<path d="M107.72 58.3804L107.067 57.0752H103.41V54.7232H106.979V53.418H103.41V51.229H107.067L107.72 49.9238H101.928V58.3804H107.72Z" fill="black"/>
<path d="M114.762 53.9075H112.723V51.1884H114.762C115.123 51.1884 115.469 51.3316 115.724 51.5866C115.979 51.8415 116.122 52.1873 116.122 52.5479C116.122 52.9085 115.979 53.2543 115.724 53.5093C115.469 53.7643 115.123 53.9075 114.762 53.9075ZM117.788 58.3669L115.748 55.0496C116.331 54.9577 116.859 54.6518 117.228 54.1918C117.598 53.7318 117.783 53.1505 117.747 52.5615C117.759 52.2009 117.696 51.8417 117.56 51.5075C117.424 51.1732 117.219 50.8714 116.959 50.6217C116.698 50.3721 116.388 50.1803 116.048 50.0589C115.708 49.9375 115.347 49.8892 114.987 49.9171H111.268V58.3669H112.75V55.2127H114.205L116.081 58.3669H117.788Z" fill="black"/>
<path d="M127.345 58.3804L126.693 57.0752H123.035V54.7232H126.604V53.418H123.035V51.229H126.693L127.345 49.9238H121.554V58.3804H127.345Z" fill="black"/>
<path d="M138.698 58.367V49.9104H137.216V55.7838L132.892 49.9104H131.37V58.367H132.852V52.3373L137.264 58.367H138.698Z" fill="black"/>
<path d="M149.5 51.0932C149.122 50.6661 148.656 50.3267 148.133 50.0989C147.611 49.8711 147.045 49.7603 146.475 49.7744C145.885 49.7512 145.296 49.8473 144.744 50.057C144.193 50.2667 143.689 50.5857 143.263 50.9948C142.838 51.4039 142.499 51.8948 142.268 52.4379C142.037 52.9811 141.917 53.5653 141.917 54.1557C141.917 54.746 142.037 55.3302 142.268 55.8734C142.499 56.4165 142.838 56.9074 143.263 57.3165C143.689 57.7256 144.193 58.0446 144.744 58.2543C145.296 58.464 145.885 58.5601 146.475 58.5369C147.132 58.5456 147.784 58.4129 148.385 58.1479C148.987 57.8828 149.525 57.4915 149.962 57.0006V53.8328H146.563V55.1379H148.473V56.4567C147.916 56.9401 147.205 57.2099 146.468 57.2181C145.692 57.1663 144.964 56.8215 144.433 56.2536C143.902 55.6856 143.606 54.9368 143.606 54.159C143.606 53.3813 143.902 52.6325 144.433 52.0645C144.964 51.4966 145.692 51.1518 146.468 51.1C146.859 51.1045 147.244 51.1945 147.596 51.3636C147.948 51.5327 148.259 51.7768 148.507 52.0789L149.5 51.0932Z" fill="black"/>
<path d="M158.881 55.4439H155.842L157.365 51.4059L158.881 55.4439ZM161.6 58.367L158.283 49.9104H156.434L153.109 58.367H154.795L155.414 56.7491H159.296L159.914 58.367H161.6Z" fill="black"/>
<path d="M177.371 58.367L179.492 49.9104H177.834L176.488 56.2529L174.734 49.9104H173.558L171.811 56.2529L170.444 49.9104H168.785L170.92 58.367H172.504L174.142 52.1333L175.787 58.367H177.371Z" fill="black"/>
<path d="M187.147 55.4439H184.108L185.631 51.4059L187.147 55.4439ZM189.866 58.367L186.548 49.9104H184.699L181.382 58.367H183.068L183.687 56.7491H187.568L188.187 58.367H189.866Z" fill="black"/>
<path d="M199.648 58.367L195.957 53.9076L199.39 49.9104H197.554L194.244 53.9484V49.9104H192.762V58.367H194.244V55.6682L194.978 54.8049L197.819 58.367H199.648Z" fill="black"/>
<path d="M207.717 55.4439H204.679L206.201 51.4059L207.717 55.4439ZM210.436 58.367L207.119 49.9104H205.297L201.98 58.367H203.666L204.284 56.7491H208.166L208.784 58.367H210.436Z" fill="black"/>
<path d="M207.5 28.6804V38.4422L200.26 28.6804H196.84V44.2137H200.165V34.0848L207.622 44.2137H210.831V28.6804H207.5Z" fill="black"/>
<path d="M82.5743 44.1184L86.3811 28.5852H82.6287L80.5553 39.4755L77.605 28.5852H75.0014L72.0239 39.4755L69.9302 28.5852H66.2049L70.0321 44.1184H73.5738L76.293 33.4525L79.0326 44.1184H82.5743Z" fill="black"/>
<path d="M99.8886 44.2339L98.6106 41.3244H92.1594V37.8099H98.4474V34.9004H92.1594V31.617H98.6106L99.8886 28.7007H88.8284V44.2339H99.8886Z" fill="black"/>
<path d="M163.714 30.8488C162.997 30.0331 162.108 29.3858 161.112 28.9534C160.115 28.5209 159.035 28.3139 157.95 28.3472C153.341 28.3472 149.554 31.5014 149.554 36.4571C149.554 41.4128 152.953 44.6146 157.583 44.6146C158.903 44.6348 160.214 44.3826 161.432 43.8738C162.651 43.365 163.752 42.6106 164.666 41.6575V35.6142H157.786V38.5237H161.308V40.4067C160.359 41.1792 159.173 41.6016 157.95 41.6031C157.281 41.6105 156.618 41.4809 156.002 41.2222C155.385 40.9636 154.828 40.5814 154.365 40.0992C153.902 39.6171 153.543 39.0451 153.309 38.4187C153.076 37.7923 152.973 37.1248 153.008 36.4571C152.973 35.7895 153.076 35.1219 153.309 34.4955C153.543 33.8691 153.902 33.2972 154.365 32.815C154.828 32.3329 155.385 31.9507 156.002 31.692C156.618 31.4333 157.281 31.3037 157.95 31.3111C158.636 31.3156 159.312 31.4794 159.924 31.7897C160.536 32.0999 161.068 32.5481 161.478 33.099L163.714 30.8488Z" fill="black"/>
<path d="M186.331 41.5625C183.449 41.5625 181.572 39.3464 181.572 36.4641C181.572 33.5818 183.421 31.3589 186.331 31.3589C189.24 31.3589 191.089 33.5478 191.089 36.4641C191.089 39.3804 189.213 41.5625 186.331 41.5625ZM186.168 44.4924C190.926 44.4924 194.509 41.1411 194.509 36.4641C194.509 31.7871 191.069 28.429 186.351 28.429C181.634 28.429 178.194 31.7803 178.194 36.4641C178.194 41.1479 181.47 44.4924 186.181 44.4924" fill="black"/>
<path d="M173.456 44.2137V31.5967H177.358L178.642 28.6804H165.529V31.5967H170.097V44.2137H173.456Z" fill="black"/>
<path d="M129.718 28.6804H126.387V44.2137H129.718V28.6804Z" fill="black"/>
<path d="M111.737 44.2137V41.3041H105.83V28.6804H102.499V44.2137H111.737Z" fill="black"/>
<path d="M123.681 44.2137V41.3041H117.774V28.6804H114.443V44.2137H123.681Z" fill="black"/>
<path d="M147.12 44.2137V28.6804H143.79V38.4422L136.55 28.6804H133.13V44.2137H136.455V34.0848L143.905 44.2137H147.12Z" fill="black"/>
<path d="M95.3476 22.5488C95.0457 22.549 94.7472 22.4864 94.4708 22.365C94.1945 22.2435 93.9464 22.0659 93.7425 21.8434C93.5385 21.6209 93.3831 21.3584 93.2861 21.0725C93.1891 20.7867 93.1526 20.4838 93.179 20.1831C93.1553 19.8839 93.1938 19.583 93.292 19.2994C93.3902 19.0158 93.5461 18.7556 93.7498 18.5351C93.9535 18.3146 94.2006 18.1387 94.4755 18.0184C94.7505 17.8981 95.0474 17.8359 95.3476 17.8359C95.6477 17.8359 95.9446 17.8981 96.2196 18.0184C96.4946 18.1387 96.7417 18.3146 96.9454 18.5351C97.1491 18.7556 97.3049 19.0158 97.4031 19.2994C97.5014 19.583 97.5398 19.8839 97.5161 20.1831C97.5415 20.4836 97.5043 20.7861 97.4069 21.0714C97.3095 21.3568 97.1541 21.6189 96.9503 21.8412C96.7465 22.0635 96.4989 22.2411 96.2231 22.3629C95.9472 22.4847 95.6491 22.548 95.3476 22.5488ZM95.3476 23.5685C95.7954 23.5831 96.2414 23.5048 96.6574 23.3384C97.0734 23.172 97.4504 22.9213 97.7647 22.6019C98.0789 22.2825 98.3236 21.9015 98.4832 21.4829C98.6429 21.0642 98.714 20.617 98.6922 20.1695C98.6922 19.2825 98.3398 18.4318 97.7126 17.8046C97.0853 17.1773 96.2346 16.825 95.3476 16.825C94.4605 16.825 93.6098 17.1773 92.9826 17.8046C92.3554 18.4318 92.003 19.2825 92.003 20.1695C91.9812 20.617 92.0523 21.0642 92.2119 21.4829C92.3716 21.9015 92.6162 22.2825 92.9305 22.6019C93.2447 22.9213 93.6218 23.172 94.0378 23.3384C94.4538 23.5048 94.8998 23.5831 95.3476 23.5685Z" fill="black"/>
<path d="M70.2361 23.4461L72.5678 16.9065H71.2626L69.5155 22.2021L67.7685 16.9065H66.4633L68.8017 23.4461H70.2361Z" fill="black"/>
<path d="M116.367 21.1824H114.015L115.191 18.0621L116.367 21.1824ZM118.474 23.4461L115.904 16.9065H114.477L111.907 23.4461H113.206L113.688 22.1953H116.693L117.169 23.4461H118.474Z" fill="black"/>
<path d="M76.0619 16.9065H74.913V23.4461H76.0619V16.9065Z" fill="black"/>
<path d="M83.2881 18.6263L84.0562 17.8513C83.7778 17.5117 83.4254 17.2403 83.026 17.0576C82.6266 16.875 82.1908 16.7861 81.7517 16.7976C81.3054 16.7976 80.8634 16.8855 80.451 17.0564C80.0386 17.2272 79.6639 17.4775 79.3483 17.7932C79.0327 18.1088 78.7823 18.4835 78.6115 18.8959C78.4407 19.3082 78.3528 19.7502 78.3528 20.1966C78.3528 20.6429 78.4407 21.0849 78.6115 21.4973C78.7823 21.9097 79.0327 22.2844 79.3483 22.6C79.6639 22.9156 80.0386 23.166 80.451 23.3368C80.8634 23.5076 81.3054 23.5955 81.7517 23.5955C82.1908 23.6071 82.6266 23.5181 83.026 23.3355C83.4254 23.1529 83.7778 22.8815 84.0562 22.5419L83.2881 21.7533C83.1145 22.0003 82.8847 22.2025 82.6175 22.3432C82.3504 22.4838 82.0536 22.5589 81.7517 22.5623C81.4454 22.5646 81.1419 22.5041 80.8598 22.3846C80.5777 22.2652 80.3231 22.0892 80.1117 21.8675C79.9002 21.6459 79.7364 21.3833 79.6303 21.0959C79.5242 20.8085 79.4781 20.5025 79.4948 20.1966C79.4781 19.8907 79.5242 19.5847 79.6303 19.2973C79.7364 19.0099 79.9002 18.7473 80.1117 18.5256C80.3231 18.304 80.5777 18.128 80.8598 18.0085C81.1419 17.889 81.4454 17.8286 81.7517 17.8309C82.0533 17.8359 82.3495 17.9117 82.6164 18.0522C82.8832 18.1927 83.1133 18.394 83.2881 18.6399" fill="black"/>
<path d="M88.8556 23.4461V17.9194H90.4055L90.8337 16.9065H85.7285V17.9194H87.7067V23.4461H88.8556Z" fill="black"/>
<path d="M103.621 19.9995H102.05V17.9126H103.621C103.765 17.9009 103.91 17.9193 104.046 17.9664C104.183 18.0136 104.308 18.0885 104.415 18.1866C104.521 18.2846 104.606 18.4036 104.664 18.536C104.722 18.6684 104.752 18.8115 104.752 18.956C104.752 19.1006 104.722 19.2436 104.664 19.3761C104.606 19.5085 104.521 19.6275 104.415 19.7255C104.308 19.8235 104.183 19.8985 104.046 19.9457C103.91 19.9928 103.765 20.0112 103.621 19.9995ZM105.966 23.4461L104.368 20.8764C104.819 20.8077 105.228 20.573 105.515 20.2184C105.802 19.8637 105.946 19.4147 105.918 18.9594C105.927 18.6805 105.876 18.403 105.77 18.1448C105.664 17.8867 105.505 17.6538 105.303 17.4614C105.101 17.269 104.861 17.1213 104.598 17.028C104.335 16.9347 104.055 16.898 103.777 16.9201H100.908V23.4597H102.05V21.0056H103.192L104.64 23.4461H105.966Z" fill="black"/>
<path d="M109.718 16.9065H108.57V23.4461H109.718V16.9065Z" fill="black"/>
<path d="M127.005 23.5684C128.895 23.5684 129.827 22.4876 129.827 20.8493V16.9065H128.671V20.8289C128.671 21.2724 128.495 21.6978 128.181 22.0114C127.868 22.325 127.442 22.5012 126.999 22.5012C126.555 22.5012 126.13 22.325 125.816 22.0114C125.503 21.6978 125.326 21.2724 125.326 20.8289V16.9065H124.171V20.8697C124.171 22.4808 125.102 23.5888 127.005 23.5888" fill="black"/>
<path d="M138.263 23.4461V16.9065H137.114V21.4475L133.769 16.9065H132.593V23.4461H133.742V18.7827L137.155 23.4461H138.263Z" fill="black"/>
<path d="M142.457 16.9065H141.308V23.4461H142.457V16.9065Z" fill="black"/>
<path d="M148.766 23.4461L151.097 16.9065H149.792L148.045 22.2021L146.298 16.9065H144.993L147.331 23.4461H148.766Z" fill="black"/>
<path d="M158.14 23.4461L157.637 22.44H154.809V20.625H157.569V19.6121H154.809V17.9194H157.637L158.14 16.9065H153.66V23.4461H158.14Z" fill="black"/>
<path d="M163.626 19.9995H162.056V17.9126H163.626C163.77 17.9009 163.915 17.9193 164.052 17.9664C164.188 18.0136 164.314 18.0885 164.42 18.1866C164.526 18.2846 164.611 18.4036 164.669 18.536C164.727 18.6684 164.757 18.8115 164.757 18.956C164.757 19.1006 164.727 19.2436 164.669 19.3761C164.611 19.5085 164.526 19.6275 164.42 19.7255C164.314 19.8235 164.188 19.8985 164.052 19.9457C163.915 19.9928 163.77 20.0112 163.626 19.9995ZM165.971 23.4461L164.374 20.8764C164.825 20.8077 165.233 20.573 165.52 20.2184C165.807 19.8637 165.951 19.4147 165.924 18.9594C165.932 18.6805 165.882 18.403 165.776 18.1448C165.67 17.8867 165.511 17.6538 165.308 17.4614C165.106 17.269 164.866 17.1213 164.603 17.028C164.34 16.9347 164.06 16.898 163.782 16.9201H160.907V23.4597H162.056V21.0056H163.191L164.646 23.4461H165.971Z" fill="black"/>
<path d="M172.463 18.4836L173.225 17.7154C172.897 17.4118 172.513 17.1757 172.094 17.0205C171.676 16.8654 171.23 16.7943 170.784 16.8113C169.35 16.8113 168.398 17.6406 168.398 18.7215C168.398 21.1348 172.218 20.2782 172.218 21.6582C172.218 22.0865 171.845 22.5487 170.9 22.5487C170.172 22.5495 169.474 22.2638 168.955 21.7534L168.214 22.508C168.56 22.8583 168.975 23.132 169.433 23.3112C169.891 23.4904 170.381 23.5711 170.872 23.548C172.64 23.548 173.401 22.6167 173.401 21.5087C173.401 19.0614 169.594 19.816 169.594 18.5992C169.594 18.1097 170.03 17.7902 170.709 17.7902C171.364 17.7898 171.996 18.032 172.484 18.47" fill="black"/>
<path d="M177.228 16.9065H176.08V23.4461H177.228V16.9065Z" fill="black"/>
<path d="M182.816 23.4461V17.9194H184.366L184.795 16.9065H179.689V17.9194H181.668V23.4461H182.816Z" fill="black"/>
<path d="M189.805 23.4461V20.7337L192.102 16.9065H190.79L189.24 19.714L187.67 16.9065H186.351L188.656 20.7337V23.4461H189.805Z" fill="black"/>
<path d="M200.165 22.5488C199.863 22.549 199.564 22.4864 199.288 22.365C199.012 22.2435 198.764 22.0659 198.56 21.8434C198.356 21.6209 198.2 21.3584 198.103 21.0725C198.006 20.7867 197.97 20.4838 197.996 20.1831C197.972 19.8839 198.011 19.583 198.109 19.2994C198.207 19.0158 198.363 18.7556 198.567 18.5351C198.771 18.3146 199.018 18.1387 199.293 18.0184C199.568 17.8981 199.865 17.8359 200.165 17.8359C200.465 17.8359 200.762 17.8981 201.037 18.0184C201.312 18.1387 201.559 18.3146 201.762 18.5351C201.966 18.7556 202.122 19.0158 202.22 19.2994C202.318 19.583 202.357 19.8839 202.333 20.1831C202.359 20.4836 202.321 20.7861 202.224 21.0714C202.127 21.3568 201.971 21.6189 201.767 21.8412C201.564 22.0635 201.316 22.2411 201.04 22.3629C200.764 22.4847 200.466 22.548 200.165 22.5488ZM200.165 23.5685C200.612 23.5821 201.058 23.503 201.473 23.3363C201.889 23.1696 202.265 22.9188 202.579 22.5997C202.894 22.2805 203.138 21.8999 203.298 21.4817C203.458 21.0635 203.53 20.6168 203.509 20.1695C203.509 19.7303 203.423 19.2954 203.255 18.8896C203.087 18.4838 202.84 18.1151 202.53 17.8046C202.219 17.494 201.85 17.2476 201.445 17.0795C201.039 16.9115 200.604 16.825 200.165 16.825C199.725 16.825 199.291 16.9115 198.885 17.0795C198.479 17.2476 198.11 17.494 197.8 17.8046C197.489 18.1151 197.243 18.4838 197.075 18.8896C196.907 19.2954 196.82 19.7303 196.82 20.1695C196.798 20.617 196.869 21.0642 197.029 21.4829C197.189 21.9015 197.433 22.2825 197.748 22.6019C198.062 22.9213 198.439 23.172 198.855 23.3384C199.271 23.5048 199.717 23.5831 200.165 23.5685Z" fill="black"/>
<path d="M207.234 23.4461V20.625H209.974V19.6121H207.234V17.9194H210.049L210.565 16.9065H206.086V23.4461H207.234Z" fill="black"/>
</svg>
