<svg viewBox="0 0 241 57" fill="none" xmlns="http://www.w3.org/2000/svg">
<path d="M82.7129 52.9804L81.8939 51.3479H77.3426V48.4239H81.7852V46.7986H77.3426V44.056H81.8939L82.7129 42.4307H75.4946V52.9804H82.7129ZM68.4648 52.9804V44.056H70.9578L71.6608 42.4307H63.4279V44.056H66.6167V52.9804H68.4648ZM101.592 52.9804V42.4307H99.7439V46.7478H94.2577V42.4307H92.4169V52.9804H94.2577V48.3731H99.7439V52.9804H101.592ZM113.709 52.9877L112.898 51.3624H108.339V48.4311H112.782V46.8059H108.339V44.0633H112.898L113.709 42.438H106.491V52.9877H113.709ZM126.254 52.9804L123.682 48.8374C124.943 48.6343 126.175 47.6185 126.175 45.7393C126.175 43.7948 124.819 42.438 122.732 42.438H118.101V52.9877H119.949V49.0479H121.783L124.124 52.9877H126.254V52.9804ZM122.479 47.4154H119.949V44.0633H122.479C123.522 44.0633 124.283 44.7308 124.283 45.7393C124.283 46.7478 123.522 47.4154 122.479 47.4154ZM138.154 52.9877L137.343 51.3624H132.784V48.4311H137.227V46.8059H132.784V44.0633H137.343L138.154 42.438H130.936V52.9877H138.154ZM152.301 52.9804V42.4307H150.453V49.7516L145.068 42.4307H143.169V52.9804H145.017V45.4491L150.518 52.9804H152.301ZM165.759 43.9036C164.911 42.9604 163.715 42.2566 161.991 42.2566C158.939 42.2566 156.461 44.4043 156.461 47.7128C156.461 51.0214 158.939 53.1836 161.991 53.1836C163.824 53.1836 165.295 52.429 166.332 51.2753V47.321H162.106V48.9463H164.491V50.5933C164.02 51.0359 163.07 51.5438 161.991 51.5438C159.903 51.5438 158.36 49.933 158.36 47.7128C158.36 45.4999 159.911 43.8964 161.991 43.8964C163.078 43.8964 163.984 44.426 164.549 45.1153L165.759 43.9036ZM180.848 52.9804L176.71 42.4307H174.405L170.267 52.9804H172.369L173.144 50.9561H177.978L178.753 52.9804H180.848ZM177.449 49.3236H173.659L175.557 44.2954L177.449 49.3236ZM199.292 52.9804L201.937 42.4307H199.865L198.191 50.3394L196.009 42.4307H194.538L192.356 50.3394L190.661 42.4307H188.595L191.255 52.9804H193.226L195.263 45.1951L197.321 52.9804H199.292ZM214.866 52.9804L210.728 42.4307H208.424L204.285 52.9804H206.387L207.163 50.9561H211.997L212.772 52.9804H214.866ZM211.475 49.3236H207.684L209.583 44.2954L211.475 49.3236ZM227.042 52.9804L222.447 47.4154L226.73 42.4307H224.44L220.316 47.4589V42.4307H218.468V52.9804H220.316V49.6065L221.23 48.5327L224.766 52.9804H227.042ZM240.5 52.9804L236.362 42.4307H234.057L229.919 52.9804H232.021L232.796 50.9561H237.63L238.405 52.9804H240.5ZM237.101 49.3236H233.311L235.209 44.2954L237.101 49.3236ZM241 35.3928V16.2235H236.898V28.2678L227.969 16.2235H223.752V35.3928H227.861V22.8914L237.043 35.3928H241ZM82.894 35.2767L87.5902 16.1074H82.9665L80.4082 29.5521L76.7701 16.1074H73.5596L69.8925 29.5521L67.3052 16.1074H62.7177L67.4356 35.2767H71.7985L75.154 22.1151L78.5312 35.2767H82.894ZM104.244 35.4218L102.665 31.8303H94.7071V27.4915H102.462V23.8927H94.7071V19.8441H102.665L104.244 16.2525H90.6051V35.4218H104.244ZM182.921 18.9008C181.399 17.1667 179.116 15.8172 175.818 15.8172C170.129 15.8172 165.469 19.7062 165.469 25.8227C165.469 31.9101 169.68 35.8572 175.362 35.8572C178.891 35.8572 182.116 34.4061 184.095 32.2004V24.7779H175.608V28.3767H179.949V30.6984C179.159 31.424 177.529 32.1786 175.811 32.1786C172.282 32.1786 169.716 29.4795 169.716 25.8299C169.716 22.1731 172.282 19.4813 175.811 19.4813C177.71 19.4813 179.239 20.4753 180.159 21.687L182.921 18.9008ZM210.598 35.7411C216.432 35.7411 220.889 31.6054 220.889 25.8227C220.889 20.0472 216.642 15.9043 210.808 15.9043C205.003 15.9043 200.756 20.04 200.756 25.8227C200.749 31.6054 204.793 35.7411 210.598 35.7411ZM210.801 32.1205C207.25 32.1205 204.967 29.3924 204.967 25.8299C204.967 22.2384 207.25 19.5393 210.801 19.5393C214.352 19.5393 216.664 22.2384 216.664 25.8299C216.671 29.3924 214.359 32.1205 210.801 32.1205ZM194.922 35.3928V19.8223H199.741L201.321 16.2235H185.16V19.8223H190.791V35.3928H194.922ZM136.908 16.2235H141.01V35.3928H136.908V16.2235ZM118.848 35.3928V31.8013H111.564V16.2235H107.462V35.3928H118.848ZM133.574 35.3928V31.8013H126.291V16.2235H122.181V35.3928H133.574ZM162.462 35.3928V16.2235H158.36V28.2678L149.431 16.2235H145.213V35.3928H149.322V22.8914L158.505 35.3928H162.462ZM98.6423 9.91115C101.063 9.91115 102.766 8.14804 102.766 5.73192C102.766 3.32307 101.063 1.5527 98.6423 1.5527C96.2217 1.5527 94.5186 3.31581 94.5186 5.73192C94.5186 8.14804 96.2217 9.91115 98.6423 9.91115ZM98.6423 8.65593C97.0117 8.65593 95.9681 7.39346 95.9681 5.73918C95.9681 4.07039 97.0044 2.82243 98.6423 2.82243C100.266 2.82243 101.317 4.07039 101.317 5.73918C101.317 7.39346 100.266 8.65593 98.6423 8.65593ZM67.6821 9.76604L70.5665 1.69055H68.9576L66.7979 8.22785L64.6455 1.69055H63.0366L65.921 9.76604H67.6821ZM127.153 9.76604L123.986 1.69055H122.218L119.051 9.76604H120.659L121.254 8.21334H124.957L125.551 9.76604H127.153ZM124.551 6.97263H121.645L123.095 3.11991L124.551 6.97263ZM73.4509 1.69055H74.8641V9.76604H73.4509V1.69055ZM83.7782 3.81645L84.7276 2.85871C84.1116 2.12589 83.2129 1.55995 81.8867 1.55995C79.5023 1.55995 77.6543 3.25051 77.6543 5.73918C77.6543 8.2206 79.5023 9.9184 81.8867 9.9184C83.2129 9.9184 84.1043 9.35247 84.7276 8.61965L83.7782 7.66917C83.3651 8.24962 82.6694 8.66319 81.8867 8.66319C80.2923 8.66319 79.1037 7.44425 79.1037 5.74644C79.1037 4.04862 80.2923 2.82968 81.8867 2.82968C82.6694 2.81517 83.3651 3.24325 83.7782 3.81645ZM90.6341 9.76604V2.93852H92.5474L93.0837 1.69055H86.7786V2.93852H89.2209V9.76604H90.6341ZM111.731 9.76604L109.76 6.59534C110.723 6.43572 111.673 5.66662 111.673 4.22276C111.673 2.73536 110.637 1.69055 109.035 1.69055H105.491V9.76604H106.904V6.75496H108.31L110.1 9.76604H111.731ZM108.846 5.507H106.911V2.93852H108.846C109.644 2.93852 110.223 3.44641 110.223 4.22276C110.223 4.99911 109.644 5.507 108.846 5.507ZM114.941 1.69055H116.355V9.76604H114.941V1.69055ZM137.669 9.91115C140.002 9.91115 141.147 8.58337 141.147 6.57357V1.69055H139.72V6.53004C139.72 7.81428 139.002 8.64867 137.661 8.64867C136.306 8.64867 135.596 7.81428 135.596 6.53004V1.69055H134.168V6.58083C134.176 8.56886 135.321 9.91115 137.669 9.91115ZM151.547 9.76604V1.69055H150.134V7.29913L146.003 1.69055H144.561V9.76604H145.967V4.00509L150.177 9.76604H151.547ZM155.301 1.69055H156.715V9.76604H155.301V1.69055ZM164.491 9.76604L167.368 1.69055H165.759L163.607 8.22785L161.454 1.69055H159.845L162.722 9.76604H164.491ZM176.05 9.76604L175.427 8.51807H171.941V6.28335H175.34V5.03539H171.941V2.93852H175.427L176.05 1.69055H170.528V9.76604H176.05ZM185.703 9.76604L183.732 6.59534C184.696 6.43572 185.646 5.66662 185.646 4.22276C185.646 2.73536 184.609 1.69055 183.008 1.69055H179.464V9.76604H180.877V6.75496H182.283L184.073 9.76604H185.703ZM182.812 5.507H180.877V2.93852H182.812C183.609 2.93852 184.189 3.44641 184.189 4.22276C184.189 4.99911 183.609 5.507 182.812 5.507ZM193.704 3.63506L194.647 2.68457C193.9 1.96627 192.886 1.56721 191.632 1.56721C189.863 1.56721 188.697 2.5975 188.697 3.92528C188.697 6.90733 193.4 5.84801 193.4 7.54582C193.4 8.07548 192.943 8.64867 191.777 8.64867C190.74 8.64867 189.936 8.19883 189.378 7.66917L188.465 8.59789L188.443 8.62691C189.153 9.38875 190.233 9.91115 191.719 9.91115C193.893 9.91115 194.835 8.76476 194.835 7.41522C194.835 4.39689 190.146 5.33287 190.146 3.83096C190.146 3.22874 190.675 2.82243 191.516 2.82243C192.306 2.82968 193.096 3.09089 193.704 3.63506ZM198.162 1.69055H199.575V9.76604H198.162V1.69055ZM206.467 9.76604V2.93852H208.38L208.909 1.69055H202.611V2.93852H205.054V9.76604H206.467ZM215.084 9.76604V6.41395L217.918 1.69055H216.294L214.381 5.15873L212.446 1.69055H210.83L213.671 6.41395V9.76604H215.084ZM227.854 9.91115C230.274 9.91115 231.977 8.14804 231.977 5.73192C231.977 3.32307 230.274 1.5527 227.854 1.5527C225.433 1.5527 223.73 3.31581 223.73 5.73192C223.73 8.14804 225.433 9.91115 227.854 9.91115ZM227.854 8.65593C226.223 8.65593 225.179 7.39346 225.179 5.73918C225.179 4.07039 226.216 2.82243 227.854 2.82243C229.477 2.82243 230.528 4.07039 230.528 5.73918C230.528 7.39346 229.47 8.65593 227.854 8.65593ZM236.565 9.76604V6.28335H239.942V5.03539H236.565V2.93852H240.043L240.674 1.69055H235.151V9.76604H236.565ZM8.92861 40.5153C11.284 40.479 12.3348 38.7376 14.6902 38.6869C17.2195 38.6288 18.379 40.5298 20.9011 40.5298C23.4304 40.5298 24.5827 38.6869 27.112 38.6869C29.6412 38.6869 30.7936 40.5298 33.3228 40.5298C35.8521 40.5298 37.0045 38.6288 39.5337 38.6869C41.8891 38.7449 42.9255 40.4862 45.2808 40.5153C45.2881 40.5153 45.2953 40.508 45.3026 40.508C39.7004 46.581 30.4674 51.4567 27.083 52.9514C24.3797 51.863 14.1974 46.8349 8.23287 40.3774C8.46479 40.4355 8.68945 40.5153 8.92861 40.5153ZM46.6071 28.5073L40.3889 34.7979L34.1635 28.5073H46.6071ZM27.5323 21.3823H39.9758L33.7577 27.6729L27.5323 21.3823ZM33.3373 28.5073L27.1192 34.7979L20.8938 28.5073H33.3373ZM20.8938 14.2573H33.3373L27.1192 20.5479L20.8938 14.2573ZM20.0604 28.5073L13.8422 34.7979L7.61686 28.5073H20.0604ZM14.2553 21.3823H26.6989L20.4807 27.6729L14.2553 21.3823ZM49.8176 3.84547V10.3247H3.81205V3.84547H49.8176ZM0.00724726 0L0 31.2716C0 45.3765 24.4015 56.2454 26.6554 56.8404L27.2641 57L27.8439 56.7678C28.0976 56.6662 53.6224 45.5869 53.6224 31.2716V0H0.00724726Z" fill="#005137"/>
</svg>
