<svg viewBox="0 0 195 45" fill="none" xmlns="http://www.w3.org/2000/svg">
<g clip-path="url(#clip0_626_11621)">
<path d="M21.4429 17.439L16.5212 22.4218H26.3918L21.4429 17.439Z" fill="currentColor"/>
<path d="M2.51073 2.63985H39.8993V9.35619H2.51073V2.63985ZM26.4598 22.483H36.5275L31.4903 27.561L26.4598 22.483L21.4225 27.561L16.3921 22.483L11.3412 27.561L6.31076 22.483H16.3921L11.3684 17.4049H21.3885L16.3581 12.3201H26.4462L21.3885 17.4049H31.4971L26.4598 22.483ZM4.61808 30.3686C5.14862 30.8215 5.81749 31.0804 6.5147 31.1027C8.41812 31.0687 9.26786 29.6616 11.1713 29.6208C13.2107 29.5732 14.1488 31.1095 16.1949 31.1095C18.2411 31.1095 19.1724 29.6208 21.2186 29.6208C23.2648 29.6208 24.1961 31.1095 26.2423 31.1095C28.2884 31.1095 29.2197 29.5732 31.2659 29.6208C33.1693 29.6616 33.9851 31.0687 35.9089 31.1027C36.6125 31.0797 37.2868 30.8157 37.8191 30.355C35.9861 32.7629 33.7781 34.8608 31.2795 36.5683C28.1345 38.8254 24.7599 40.744 21.2118 42.2921C17.6647 40.7463 14.292 38.8276 11.1509 36.5683C8.6582 34.8613 6.45303 32.7686 4.61808 30.3686V30.3686ZM42.904 -0.42601V-0.466797H-0.459961V-0.42601V24.7875C-0.459961 36.3439 20.3621 45.4599 21.2186 45.4599C22.0751 45.4599 42.904 36.3439 42.904 24.7875V-0.42601Z" fill="currentColor"/>
<path d="M25.644 7.43232L26.7861 4.84231V4.48882H24.6651V4.94428H26.1947L25.0798 7.43232H25.644ZM22.5782 5.93678C22.5027 5.94641 22.4261 5.9399 22.3533 5.91769C22.2806 5.89548 22.2134 5.85807 22.1562 5.80794C22.099 5.75781 22.0531 5.69611 22.0216 5.62691C21.99 5.55771 21.9735 5.4826 21.9731 5.40654C21.9783 5.33416 21.9977 5.26351 22.0303 5.19866C22.0628 5.13381 22.1079 5.07604 22.1629 5.02866C22.2178 4.98128 22.2816 4.94523 22.3505 4.92258C22.4195 4.89994 22.4922 4.89114 22.5646 4.8967C22.7449 4.8967 22.9178 4.96832 23.0453 5.0958C23.1727 5.22329 23.2444 5.3962 23.2444 5.57649C23.1735 5.68131 23.0784 5.76753 22.9672 5.82787C22.856 5.88821 22.7319 5.9209 22.6054 5.92318L22.5782 5.93678ZM22.4762 7.46631C23.3327 7.46631 23.7746 6.78652 23.7746 5.95038C23.7746 5.11423 23.4279 4.42764 22.5646 4.42764C22.4275 4.41647 22.2895 4.43353 22.1592 4.47778C22.029 4.52203 21.9092 4.59253 21.8072 4.68491C21.7053 4.77729 21.6234 4.8896 21.5666 5.01489C21.5098 5.14018 21.4792 5.27579 21.4769 5.41334C21.4728 5.54234 21.4958 5.67077 21.5443 5.79035C21.5929 5.90994 21.6659 6.01804 21.7588 6.10769C21.8516 6.19733 21.9622 6.26655 22.0834 6.31087C22.2047 6.3552 22.3338 6.37365 22.4626 6.36505C22.6178 6.36014 22.7699 6.3203 22.9076 6.24851C23.0453 6.17672 23.1651 6.07482 23.258 5.95038V6.03875C23.258 6.5214 23.0132 7.00405 22.4762 7.00405C22.3632 7.00794 22.2507 6.9875 22.1463 6.9441C22.0419 6.9007 21.9481 6.83537 21.8712 6.75253L21.6333 7.14001C21.7453 7.24731 21.8775 7.33138 22.0221 7.38738C22.1668 7.44338 22.3211 7.4702 22.4762 7.46631V7.46631ZM19.3152 7.01085C18.9821 7.01085 18.7033 6.8545 18.7033 6.59618C18.7033 6.33786 19.1316 6.15431 19.3152 6.13392C19.4987 6.11353 19.9202 6.29027 19.9202 6.59618C19.9202 6.90208 19.6415 7.01085 19.3152 7.01085ZM19.3152 5.69885C19.1316 5.66486 18.7509 5.55609 18.7509 5.27738C18.7509 4.99867 18.9889 4.8899 19.3152 4.8899C19.6415 4.8899 19.8726 5.03266 19.8726 5.27738C19.8726 5.52211 19.4987 5.66486 19.3152 5.69885ZM19.3152 7.46631C19.9134 7.46631 20.4368 7.1876 20.4368 6.66416C20.4205 6.48026 20.3457 6.30642 20.2234 6.16817C20.101 6.02991 19.9376 5.93452 19.757 5.89599C19.9211 5.86772 20.0711 5.7855 20.1831 5.66236C20.2952 5.53922 20.3629 5.38221 20.3756 5.2162C20.3756 4.67237 19.8114 4.44124 19.2948 4.44124C18.7781 4.44124 18.2139 4.67237 18.2139 5.2162C18.2251 5.38162 18.2915 5.53851 18.4024 5.66175C18.5133 5.78499 18.6624 5.86747 18.8257 5.89599C18.6456 5.9355 18.4828 6.03119 18.3606 6.16925C18.2384 6.30731 18.1632 6.48061 18.1459 6.66416C18.1459 7.19439 18.6694 7.46631 19.2744 7.46631H19.3152ZM16.9291 7.41872V4.48882H16.494L15.6443 5.34536L15.9434 5.65806L16.426 5.15502V7.43232L16.9291 7.41872Z" fill="currentColor"/>
<path d="M66.2548 42.367L65.6022 41.0618H61.945V38.7165H65.5139V37.4113H61.945V35.2156H65.6022L66.2548 33.9104H60.463V42.367H66.2548Z" fill="currentColor"/>
<path d="M54.8275 42.367V35.2156H56.8261L57.3835 33.9104H50.7827V35.2156H53.3387V42.367H54.8275Z" fill="currentColor"/>
<path d="M81.992 42.367V33.9104H80.5101V37.3773H76.1118V33.9104H74.6299V42.367H76.1118V38.6825H80.5101V42.367H81.992Z" fill="currentColor"/>
<path d="M91.7198 42.3804L91.0672 41.0752H87.4099V38.7232H90.9788V37.418H87.4099V35.229H91.0672L91.7198 33.9238H85.928V42.3804H91.7198Z" fill="currentColor"/>
<path d="M98.7625 37.9075H96.7231V35.1884H98.7625C99.123 35.1884 99.4688 35.3316 99.7238 35.5866C99.9788 35.8415 100.122 36.1873 100.122 36.5479C100.122 36.9085 99.9788 37.2543 99.7238 37.5093C99.4688 37.7643 99.123 37.9075 98.7625 37.9075ZM101.788 42.3669L99.7482 39.0496C100.331 38.9577 100.859 38.6518 101.228 38.1918C101.598 37.7318 101.783 37.1505 101.747 36.5615C101.759 36.2009 101.696 35.8417 101.56 35.5075C101.424 35.1732 101.219 34.8714 100.959 34.6217C100.698 34.3721 100.388 34.1803 100.048 34.0589C99.7081 33.9375 99.3465 33.8892 98.9868 33.9171H95.2683V42.3669H96.7503V39.2127H98.205L100.081 42.3669H101.788Z" fill="currentColor"/>
<path d="M111.345 42.3804L110.693 41.0752H107.036V38.7232H110.604V37.418H107.036V35.229H110.693L111.345 33.9238H105.554V42.3804H111.345Z" fill="currentColor"/>
<path d="M122.698 42.367V33.9104H121.216V39.7838L116.892 33.9104H115.37V42.367H116.852V36.3373L121.264 42.367H122.698Z" fill="currentColor"/>
<path d="M133.5 35.0932C133.122 34.6661 132.656 34.3267 132.133 34.0989C131.611 33.8711 131.045 33.7603 130.475 33.7744C129.885 33.7512 129.296 33.8473 128.745 34.057C128.193 34.2667 127.689 34.5857 127.263 34.9948C126.838 35.4039 126.499 35.8948 126.268 36.4379C126.037 36.9811 125.917 37.5653 125.917 38.1557C125.917 38.746 126.037 39.3302 126.268 39.8734C126.499 40.4165 126.838 40.9074 127.263 41.3165C127.689 41.7256 128.193 42.0446 128.745 42.2543C129.296 42.464 129.885 42.5601 130.475 42.5369C131.132 42.5456 131.784 42.4129 132.385 42.1479C132.987 41.8828 133.525 41.4915 133.962 41.0006V37.8328H130.563V39.1379H132.473V40.4567C131.916 40.9401 131.205 41.2099 130.468 41.2181C129.692 41.1663 128.964 40.8215 128.433 40.2536C127.902 39.6856 127.606 38.9368 127.606 38.159C127.606 37.3813 127.902 36.6325 128.433 36.0645C128.964 35.4966 129.692 35.1518 130.468 35.1C130.859 35.1045 131.244 35.1945 131.596 35.3636C131.948 35.5327 132.259 35.7768 132.507 36.0789L133.5 35.0932Z" fill="currentColor"/>
<path d="M142.881 39.4439H139.842L141.365 35.4059L142.881 39.4439ZM145.6 42.367L142.283 33.9104H140.434L137.109 42.367H138.795L139.414 40.7491H143.296L143.914 42.367H145.6Z" fill="currentColor"/>
<path d="M161.371 42.367L163.492 33.9104H161.833L160.487 40.2529L158.734 33.9104H157.558L155.81 40.2529L154.444 33.9104H152.785L154.92 42.367H156.504L158.142 36.1333L159.787 42.367H161.371Z" fill="currentColor"/>
<path d="M171.147 39.4439H168.108L169.631 35.4059L171.147 39.4439ZM173.866 42.367L170.548 33.9104H168.699L165.382 42.367H167.068L167.687 40.7491H171.568L172.187 42.367H173.866Z" fill="currentColor"/>
<path d="M183.648 42.367L179.957 37.9076L183.39 33.9104H181.554L178.244 37.9484V33.9104H176.762V42.367H178.244V39.6682L178.978 38.8049L181.819 42.367H183.648Z" fill="currentColor"/>
<path d="M191.717 39.4439H188.679L190.201 35.4059L191.717 39.4439ZM194.436 42.367L191.119 33.9104H189.297L185.98 42.367H187.666L188.284 40.7491H192.166L192.784 42.367H194.436Z" fill="currentColor"/>
<path d="M191.5 12.6804V22.4422L184.26 12.6804H180.84V28.2137H184.165V18.0848L191.622 28.2137H194.831V12.6804H191.5Z" fill="currentColor"/>
<path d="M66.5743 28.1184L70.3812 12.5852H66.6287L64.5554 23.4755L61.6051 12.5852H59.0015L56.024 23.4755L53.9302 12.5852H50.205L54.0322 28.1184H57.5739L60.2931 17.4525L63.0326 28.1184H66.5743Z" fill="currentColor"/>
<path d="M83.8886 28.2339L82.6106 25.3244H76.1594V21.8099H82.4474V18.9004H76.1594V15.617H82.6106L83.8886 12.7007H72.8284V28.2339H83.8886Z" fill="currentColor"/>
<path d="M147.714 14.8488C146.997 14.0331 146.108 13.3858 145.112 12.9534C144.115 12.5209 143.035 12.3139 141.95 12.3472C137.341 12.3472 133.554 15.5014 133.554 20.4571C133.554 25.4128 136.953 28.6146 141.583 28.6146C142.903 28.6348 144.214 28.3826 145.432 27.8738C146.651 27.365 147.752 26.6106 148.666 25.6575V19.6142H141.786V22.5237H145.308V24.4067C144.359 25.1792 143.173 25.6016 141.95 25.6031C141.281 25.6105 140.618 25.4809 140.002 25.2222C139.385 24.9636 138.828 24.5814 138.365 24.0992C137.902 23.6171 137.543 23.0451 137.309 22.4187C137.076 21.7923 136.973 21.1248 137.008 20.4571C136.973 19.7895 137.076 19.1219 137.309 18.4955C137.543 17.8691 137.902 17.2972 138.365 16.815C138.828 16.3329 139.385 15.9507 140.002 15.692C140.618 15.4333 141.281 15.3037 141.95 15.3111C142.636 15.3156 143.312 15.4794 143.924 15.7897C144.536 16.0999 145.068 16.5481 145.478 17.099L147.714 14.8488Z" fill="currentColor"/>
<path d="M170.331 25.5625C167.449 25.5625 165.572 23.3464 165.572 20.4641C165.572 17.5818 167.421 15.3589 170.331 15.3589C173.24 15.3589 175.089 17.5478 175.089 20.4641C175.089 23.3804 173.213 25.5625 170.331 25.5625ZM170.168 28.4924C174.926 28.4924 178.509 25.1411 178.509 20.4641C178.509 15.7871 175.069 12.429 170.351 12.429C165.634 12.429 162.194 15.7803 162.194 20.4641C162.194 25.1479 165.47 28.4924 170.181 28.4924" fill="currentColor"/>
<path d="M157.456 28.2137V15.5967H161.358L162.642 12.6804H149.529V15.5967H154.097V28.2137H157.456Z" fill="currentColor"/>
<path d="M113.718 12.6804H110.387V28.2137H113.718V12.6804Z" fill="currentColor"/>
<path d="M95.7374 28.2137V25.3041H89.83V12.6804H86.499V28.2137H95.7374Z" fill="currentColor"/>
<path d="M107.681 28.2137V25.3041H101.774V12.6804H98.4429V28.2137H107.681Z" fill="currentColor"/>
<path d="M131.12 28.2137V12.6804H127.79V22.4422L120.55 12.6804H117.13V28.2137H120.455V18.0848L127.905 28.2137H131.12Z" fill="currentColor"/>
<path d="M79.3476 6.5488C79.0457 6.54901 78.7472 6.48641 78.4708 6.36496C78.1945 6.24352 77.9464 6.0659 77.7425 5.84339C77.5385 5.62089 77.3831 5.35837 77.2861 5.07253C77.1891 4.7867 77.1526 4.48381 77.179 4.18312C77.1553 3.88391 77.1938 3.58303 77.292 3.29941C77.3902 3.01578 77.5461 2.75555 77.7498 2.53509C77.9535 2.31463 78.2006 2.13871 78.4755 2.01838C78.7505 1.89806 79.0474 1.83595 79.3476 1.83595C79.6477 1.83595 79.9446 1.89806 80.2196 2.01838C80.4946 2.13871 80.7417 2.31463 80.9454 2.53509C81.1491 2.75555 81.3049 3.01578 81.4031 3.29941C81.5014 3.58303 81.5398 3.88391 81.5161 4.18312C81.5415 4.48359 81.5043 4.78606 81.4069 5.07144C81.3095 5.35682 81.1541 5.61891 80.9503 5.84119C80.7465 6.06348 80.4989 6.24111 80.2231 6.3629C79.9472 6.48469 79.6491 6.54799 79.3476 6.5488ZM79.3476 7.56848C79.7954 7.58311 80.2414 7.50477 80.6574 7.3384C81.0734 7.17684 81.4504 6.92127 81.7647 6.60191C82.0789 6.28255 82.3236 5.90152 82.4832 5.48288C82.6429 5.06423 82.714 4.61704 82.6922 4.16953C82.6922 3.28249 82.3398 2.43178 81.7126 1.80455C81.0853 1.17732 80.2346 0.824951 79.3476 0.824951C78.4605 0.824951 77.6098 1.17732 76.9826 1.80455C76.3554 2.43178 76.003 3.28249 76.003 4.16953C75.9812 4.61704 76.0523 5.06423 76.2119 5.48288C76.3716 5.90152 76.6162 6.28255 76.9305 6.60191C77.2447 6.92127 77.6218 7.17684 78.0378 7.3384C78.4538 7.50477 78.8998 7.58311 79.3476 7.56848" fill="currentColor"/>
<path d="M54.2361 7.44609L56.5678 0.906494H55.2626L53.5155 6.20207L51.7685 0.906494H50.4633L52.8017 7.44609H54.2361Z" fill="currentColor"/>
<path d="M100.367 5.18238H98.0147L99.1907 2.06214L100.367 5.18238ZM102.474 7.44609L99.9045 0.906494H98.477L95.9073 7.44609H97.2058L97.6884 6.19527H100.693L101.169 7.44609H102.474Z" fill="currentColor"/>
<path d="M60.0619 0.906494H58.9131V7.44609H60.0619V0.906494Z" fill="currentColor"/>
<path d="M67.2881 2.62627L68.0562 1.8513C67.7778 1.51172 67.4254 1.24025 67.026 1.05764C66.6266 0.875024 66.1908 0.78609 65.7517 0.797626C65.3054 0.797626 64.8634 0.885543 64.451 1.05636C64.0386 1.22717 63.6639 1.47753 63.3483 1.79316C63.0327 2.10878 62.7823 2.48348 62.6115 2.89586C62.4407 3.30824 62.3528 3.75023 62.3528 4.19658C62.3528 4.64294 62.4407 5.08493 62.6115 5.49731C62.7823 5.90969 63.0327 6.28439 63.3483 6.60001C63.6639 6.91563 64.0386 7.166 64.451 7.33681C64.8634 7.50763 65.3054 7.59554 65.7517 7.59554C66.1908 7.60708 66.6266 7.51814 67.026 7.33553C67.4254 7.15292 67.7778 6.88145 68.0562 6.54187L67.2881 5.75331C67.1145 6.00032 66.8847 6.20251 66.6175 6.34316C66.3504 6.48382 66.0536 6.55892 65.7517 6.56226C65.4454 6.56457 65.1419 6.50412 64.8598 6.38464C64.5777 6.26515 64.3231 6.08916 64.1117 5.86752C63.9002 5.64587 63.7364 5.38327 63.6303 5.09589C63.5242 4.80852 63.4781 4.50246 63.4948 4.19658C63.4781 3.89071 63.5242 3.58465 63.6303 3.29727C63.7364 3.0099 63.9002 2.74729 64.1117 2.52565C64.3231 2.304 64.5777 2.12802 64.8598 2.00853C65.1419 1.88905 65.4454 1.8286 65.7517 1.83091C66.0533 1.83588 66.3495 1.91169 66.6164 2.05221C66.8832 2.19273 67.1133 2.39403 67.2881 2.63986" fill="currentColor"/>
<path d="M72.8556 7.44609V1.91938H74.4055L74.8337 0.906494H69.7285V1.91938H71.7067V7.44609H72.8556Z" fill="currentColor"/>
<path d="M87.6207 3.99951H86.0504V1.91256H87.6207C87.7648 1.90091 87.9098 1.91925 88.0464 1.96641C88.1831 2.01357 88.3085 2.08852 88.4148 2.18656C88.5211 2.28459 88.6059 2.40357 88.6639 2.536C88.7219 2.66844 88.7519 2.81145 88.7519 2.95604C88.7519 3.10062 88.7219 3.24363 88.6639 3.37607C88.6059 3.5085 88.5211 3.62748 88.4148 3.72551C88.3085 3.82355 88.1831 3.8985 88.0464 3.94566C87.9098 3.99282 87.7648 4.01116 87.6207 3.99951ZM89.966 7.44606L88.3685 4.87645C88.8193 4.80775 89.2283 4.57304 89.515 4.21838C89.8018 3.86372 89.9456 3.4147 89.9184 2.95943C89.9269 2.68053 89.8765 2.40296 89.7705 2.14484C89.6646 1.88672 89.5053 1.65384 89.3033 1.4614C89.1012 1.26896 88.8609 1.12129 88.5979 1.02801C88.3349 0.934735 88.0552 0.89795 87.777 0.920059H84.9083V7.45965H86.0504V5.00561H87.1924L88.6404 7.44606H89.966Z" fill="currentColor"/>
<path d="M93.7184 0.906494H92.5696V7.44609H93.7184V0.906494Z" fill="currentColor"/>
<path d="M111.005 7.56845C112.895 7.56845 113.827 6.48758 113.827 4.84928V0.906494H112.671V4.82889C112.671 5.27241 112.495 5.69776 112.181 6.01138C111.868 6.32499 111.442 6.50118 110.999 6.50118C110.555 6.50118 110.13 6.32499 109.816 6.01138C109.503 5.69776 109.326 5.27241 109.326 4.82889V0.906494H108.171V4.86968C108.171 6.48078 109.102 7.58884 111.005 7.58884" fill="currentColor"/>
<path d="M122.263 7.44609V0.906494H121.114V5.4475L117.769 0.906494H116.593V7.44609H117.742V2.78272L121.155 7.44609H122.263Z" fill="currentColor"/>
<path d="M126.457 0.906494H125.308V7.44609H126.457V0.906494Z" fill="currentColor"/>
<path d="M132.766 7.44609L135.097 0.906494H133.792L132.045 6.20207L130.298 0.906494H128.993L131.331 7.44609H132.766Z" fill="currentColor"/>
<path d="M142.14 7.44609L141.637 6.44H138.809V4.62495H141.569V3.61206H138.809V1.91938H141.637L142.14 0.906494H137.66V7.44609H142.14Z" fill="currentColor"/>
<path d="M147.626 3.99951H146.056V1.91256H147.626C147.77 1.90091 147.915 1.91925 148.052 1.96641C148.188 2.01357 148.314 2.08852 148.42 2.18656C148.526 2.28459 148.611 2.40357 148.669 2.536C148.727 2.66844 148.757 2.81145 148.757 2.95604C148.757 3.10062 148.727 3.24363 148.669 3.37607C148.611 3.5085 148.526 3.62748 148.42 3.72551C148.314 3.82355 148.188 3.8985 148.052 3.94566C147.915 3.99282 147.77 4.01116 147.626 3.99951V3.99951ZM149.971 7.44606L148.374 4.87645C148.825 4.80775 149.233 4.57304 149.52 4.21838C149.807 3.86372 149.951 3.4147 149.924 2.95943C149.932 2.68053 149.882 2.40296 149.776 2.14484C149.67 1.88672 149.511 1.65384 149.309 1.4614C149.106 1.26896 148.866 1.12129 148.603 1.02801C148.34 0.934735 148.06 0.89795 147.782 0.920059H144.907V7.45965H146.056V5.00561H147.191L148.646 7.44606H149.971Z" fill="currentColor"/>
<path d="M156.463 2.48359L157.225 1.71542C156.897 1.4118 156.513 1.17567 156.094 1.02054C155.676 0.865402 155.23 0.794302 154.784 0.811302C153.35 0.811302 152.398 1.64065 152.398 2.72152C152.398 5.13478 156.218 4.27824 156.218 5.65822C156.218 6.08649 155.845 6.54874 154.9 6.54874C154.172 6.54951 153.474 6.26378 152.955 5.75339L152.214 6.50796C152.56 6.85828 152.975 7.13196 153.433 7.31117C153.891 7.49037 154.381 7.57108 154.872 7.54804C156.64 7.54804 157.401 6.61672 157.401 5.50866C157.401 3.06141 153.594 3.81598 153.594 2.59915C153.594 2.1097 154.03 1.7902 154.709 1.7902C155.364 1.78981 155.996 2.03197 156.484 2.46999" fill="currentColor"/>
<path d="M161.228 0.906494H160.08V7.44609H161.228V0.906494Z" fill="currentColor"/>
<path d="M166.816 7.44609V1.91938H168.366L168.795 0.906494H163.689V1.91938H165.668V7.44609H166.816Z" fill="currentColor"/>
<path d="M173.805 7.44609V4.73372L176.102 0.906494H174.79L173.24 3.71403L171.67 0.906494H170.351L172.656 4.73372V7.44609H173.805Z" fill="currentColor"/>
<path d="M184.165 6.5488C183.863 6.54901 183.564 6.48641 183.288 6.36496C183.011 6.24352 182.763 6.0659 182.559 5.84339C182.356 5.62089 182.2 5.35837 182.103 5.07253C182.006 4.7867 181.97 4.48381 181.996 4.18312C181.972 3.88391 182.011 3.58303 182.109 3.29941C182.207 3.01578 182.363 2.75555 182.567 2.53509C182.77 2.31463 183.018 2.13871 183.293 2.01838C183.568 1.89806 183.864 1.83595 184.165 1.83595C184.465 1.83595 184.762 1.89806 185.037 2.01838C185.312 2.13871 185.559 2.31463 185.762 2.53509C185.966 2.75555 186.122 3.01578 186.22 3.29941C186.318 3.58303 186.357 3.88391 186.333 4.18312C186.359 4.48359 186.321 4.78606 186.224 5.07144C186.127 5.35682 185.971 5.61891 185.767 5.84119C185.564 6.06348 185.316 6.24111 185.04 6.3629C184.764 6.48469 184.466 6.54799 184.165 6.5488ZM184.165 7.56848C184.612 7.58208 185.058 7.50304 185.473 7.33632C185.889 7.1696 186.265 6.9188 186.579 6.59965C186.893 6.2805 187.138 5.8999 187.298 5.48171C187.458 5.06353 187.53 4.61679 187.509 4.16953C187.509 3.73031 187.423 3.2954 187.255 2.88961C187.086 2.48383 186.84 2.11513 186.53 1.80455C186.219 1.49398 185.85 1.24762 185.445 1.07954C185.039 0.91146 184.604 0.824951 184.165 0.824951C183.725 0.824951 183.29 0.91146 182.885 1.07954C182.479 1.24762 182.11 1.49398 181.8 1.80455C181.489 2.11513 181.243 2.48383 181.075 2.88961C180.907 3.2954 180.82 3.73031 180.82 4.16953C180.798 4.61704 180.869 5.06423 181.029 5.48288C181.189 5.90152 181.433 6.28255 181.747 6.60191C182.062 6.92127 182.439 7.17684 182.855 7.3384C183.271 7.50477 183.717 7.58311 184.165 7.56848" fill="currentColor"/>
<path d="M191.235 7.44609V4.62495H193.974V3.61206H191.235V1.91938H194.049L194.566 0.906494H190.086V7.44609H191.235Z" fill="currentColor"/>
</g>
<defs>
<clipPath id="clip0_626_11621">
<rect width="195" height="45" fill="white"/>
</clipPath>
</defs>
</svg>
